{
  "accessors": [
    {
      "bufferView": 2,
      "componentType": 5126,
      "count": 196,
      "max": [
        1.4298181533813477,
        0.2924783229827881,
        1.3357319831848145
      ],
      "min": [
        -1.310347318649292,
        -0.2924783229827881,
        -1.3357319831848145
      ],
      "type": "VEC3"
    },
    {
      "bufferView": 2,
      "byteOffset": 2352,
      "componentType": 5126,
      "count": 196,
      "max": [
        1,
        0.9879515171051025,
        0.9749280214309692
      ],
      "min": [
        -1,
        -0.9879516363143921,
        -0.9749280214309692
      ],
      "type": "VEC3"
    },
    {
      "bufferView": 3,
      "componentType": 5126,
      "count": 196,
      "max": [
        0.4591650366783142,
        0.998135507106781,
        0.510841965675354,
        1
      ],
      "min": [
        -0.9994483590126038,
        -0.9981335997581482,
        -0.9996835589408875,
        1
      ],
      "type": "VEC4"
    },
    {
      "bufferView": 1,
      "componentType": 5126,
      "count": 196,
      "max": [
        0.9698482751846313,
        0.9298715591430664
      ],
      "min": [
        0.7278569340705872,
        0.4505378007888794
      ],
      "type": "VEC2"
    },
    {
      "bufferView": 1,
      "byteOffset": 1568,
      "componentType": 5126,
      "count": 196,
      "max": [
        0.9698482751846313,
        0.9298715591430664
      ],
      "min": [
        0.7278569340705872,
        0.4505378007888794
      ],
      "type": "VEC2"
    },
    {
      "bufferView": 0,
      "componentType": 5125,
      "count": 1008,
      "type": "SCALAR"
    },
    {
      "bufferView": 2,
      "byteOffset": 4704,
      "componentType": 5126,
      "count": 197,
      "max": [
        0.9438247084617615,
        1.000000238418579,
        0.9438248872756958
      ],
      "min": [
        -0.9438250064849854,
        -0.9999963641166687,
        -0.9438251852989197
      ],
      "type": "VEC3"
    },
    {
      "bufferView": 2,
      "byteOffset": 7068,
      "componentType": 5126,
      "count": 197,
      "max": [
        0.9999161958694458,
        0.7179462909698486,
        0.9999145269393921
      ],
      "min": [
        -0.9999161958694458,
        -1,
        -0.9999145269393921
      ],
      "type": "VEC3"
    },
    {
      "bufferView": 3,
      "byteOffset": 3136,
      "componentType": 5126,
      "count": 197,
      "max": [
        0.999757707118988,
        0.43006590008735657,
        0.9999791979789734,
        1
      ],
      "min": [
        -0.9997551441192627,
        -0.3945823609828949,
        -0.9999797940254211,
        -1
      ],
      "type": "VEC4"
    },
    {
      "bufferView": 1,
      "byteOffset": 3136,
      "componentType": 5126,
      "count": 197,
      "max": [
        0.9794563055038452,
        0.994140625
      ],
      "min": [
        0.1945391297340393,
        0.005859375
      ],
      "type": "VEC2"
    },
    {
      "bufferView": 1,
      "byteOffset": 4712,
      "componentType": 5126,
      "count": 197,
      "max": [
        0.9794563055038452,
        0.994140625
      ],
      "min": [
        0.1945391297340393,
        0.005859375
      ],
      "type": "VEC2"
    },
    {
      "bufferView": 0,
      "byteOffset": 4032,
      "componentType": 5125,
      "count": 900,
      "type": "SCALAR"
    },
    {
      "bufferView": 2,
      "byteOffset": 9432,
      "componentType": 5126,
      "count": 307,
      "max": [
        0.34081894159317017,
        0.9399329423904419,
        0.8289610743522644
      ],
      "min": [
        -0.34176862239837646,
        -0.6160237193107605,
        -0.8287689089775085
      ],
      "type": "VEC3"
    },
    {
      "bufferView": 2,
      "byteOffset": 13116,
      "componentType": 5126,
      "count": 307,
      "max": [
        1,
        0.9936085939407349,
        0.9962007999420166
      ],
      "min": [
        -1,
        -0.9988628029823303,
        -0.99835604429245
      ],
      "type": "VEC3"
    },
    {
      "bufferView": 3,
      "byteOffset": 6288,
      "componentType": 5126,
      "count": 307,
      "max": [
        0.9999160766601562,
        0.9845142960548401,
        0.9999982714653015,
        1
      ],
      "min": [
        -0.9999997019767761,
        -0.9396916627883911,
        -0.9999768137931824,
        -1
      ],
      "type": "VEC4"
    },
    {
      "bufferView": 1,
      "byteOffset": 6288,
      "componentType": 5126,
      "count": 307,
      "max": [
        0.9820589423179626,
        0.8399651646614075
      ],
      "min": [
        0.005859375,
        0.005859375
      ],
      "type": "VEC2"
    },
    {
      "bufferView": 1,
      "byteOffset": 8744,
      "componentType": 5126,
      "count": 307,
      "max": [
        0.9820589423179626,
        0.8399651646614075
      ],
      "min": [
        0.005859375,
        0.005859375
      ],
      "type": "VEC2"
    },
    {
      "bufferView": 0,
      "byteOffset": 7632,
      "componentType": 5125,
      "count": 1212,
      "type": "SCALAR"
    }
  ],
  "asset": {
    "extras": {
      "author": "Rookster (https://sketchfab.com/Rookster)",
      "license": "SKETCHFAB Standard (https://sketchfab.com/licenses)",
      "source": "https://sketchfab.com/3d-models/stylized-sword-e4fbca70930e496295328d81b07690b1",
      "title": "Stylized Sword"
    },
    "generator": "Sketchfab-15.68.0",
    "version": "2.0"
  },
  "bufferViews": [
    {
      "buffer": 0,
      "byteLength": 12480,
      "name": "floatBufferViews",
      "target": 34963,
      "byteOffset": 0
    },
    {
      "buffer": 0,
      "byteLength": 11200,
      "byteOffset": 12480,
      "byteStride": 8,
      "name": "floatBufferViews",
      "target": 34962
    },
    {
      "buffer": 0,
      "byteLength": 16800,
      "byteOffset": 23680,
      "byteStride": 12,
      "name": "floatBufferViews",
      "target": 34962
    },
    {
      "buffer": 0,
      "byteLength": 11200,
      "byteOffset": 40480,
      "byteStride": 16,
      "name": "floatBufferViews",
      "target": 34962
    }
  ],
  "buffers": [
    {
      "uri": "stylized_sword_data.bin",
      "byteLength": 51680
    }
  ],
  "images": [
    {
      "uri": "stylized_sword_img0.png"
    },
    {
      "uri": "stylized_sword_img1.png"
    },
    {
      "uri": "stylized_sword_img2.png"
    }
  ],
  "materials": [
    {
      "doubleSided": true,
      "name": "SwordMAT",
      "normalTexture": {
        "index": 2,
        "scale": 0.4
      },
      "pbrMetallicRoughness": {
        "baseColorTexture": {
          "index": 0
        },
        "metallicRoughnessTexture": {
          "index": 1
        }
      }
    }
  ],
  "meshes": [
    {
      "name": "pTorus1_SwordMAT_0",
      "primitives": [
        {
          "attributes": {
            "NORMAL": 1,
            "POSITION": 0,
            "TANGENT": 2,
            "TEXCOORD_0": 3,
            "TEXCOORD_1": 4
          },
          "indices": 5,
          "material": 0,
          "mode": 4
        }
      ]
    },
    {
      "name": "pCylinder1_SwordMAT_0",
      "primitives": [
        {
          "attributes": {
            "NORMAL": 7,
            "POSITION": 6,
            "TANGENT": 8,
            "TEXCOORD_0": 9,
            "TEXCOORD_1": 10
          },
          "indices": 11,
          "material": 0,
          "mode": 4
        }
      ]
    },
    {
      "name": "pCube1_SwordMAT_0",
      "primitives": [
        {
          "attributes": {
            "NORMAL": 13,
            "POSITION": 12,
            "TANGENT": 14,
            "TEXCOORD_0": 15,
            "TEXCOORD_1": 16
          },
          "indices": 17,
          "material": 0,
          "mode": 4
        }
      ]
    }
  ],
  "nodes": [
    {
      "children": [
        1
      ],
      "matrix": [
        1,
        0,
        0,
        0,
        0,
        2.220446049250313e-16,
        -1,
        0,
        0,
        1,
        2.220446049250313e-16,
        0,
        0,
        0,
        0,
        1
      ],
      "name": "Sketchfab_model"
    },
    {
      "children": [
        2
      ],
      "matrix": [
        1,
        0,
        0,
        0,
        0,
        0,
        1,
        0,
        0,
        -1,
        0,
        0,
        0,
        0,
        0,
        1
      ],
      "name": "07cdeb53c9b540e6a18a55b99003365a.fbx"
    },
    {
      "children": [
        3
      ],
      "name": "RootNode"
    },
    {
      "children": [
        4,
        6,
        8
      ],
      "matrix": [
        1,
        0,
        0,
        0,
        0,
        0.4999999999999998,
        -0.8660254037844388,
        0,
        0,
        0.8660254037844388,
        0.4999999999999998,
        0,
        0,
        14.49573802947998,
        -25.10735511779785,
        1
      ],
      "name": "Sketchfab"
    },
    {
      "children": [
        5
      ],
      "matrix": [
        -4.6842073947971075e-15,
        -10.547897338867188,
        0,
        0,
        17.515043258666992,
        -7.77824172123109e-15,
        0,
        0,
        0,
        0,
        11.05282211303711,
        0,
        -3.0375701953744283e-13,
        -14.539987564086914,
        -8.881784197001252e-16,
        1
      ],
      "name": "pTorus1"
    },
    {
      "mesh": 0,
      "name": "pTorus1_SwordMAT_0"
    },
    {
      "children": [
        7
      ],
      "matrix": [
        7.476356029510498,
        0,
        0,
        0,
        0,
        27.647947311401367,
        -1.7763568893086377e-15,
        0,
        0,
        5.629675301278463e-16,
        8.76225757598877,
        0,
        0,
        24.086721420288086,
        -5.329070518200751e-15,
        1
      ],
      "name": "pCylinder1"
    },
    {
      "mesh": 1,
      "name": "pCylinder1_SwordMAT_0"
    },
    {
      "children": [
        9
      ],
      "matrix": [
        34.70502471923828,
        0,
        0,
        0,
        0,
        79.82963562011719,
        7.105427363413673e-15,
        0,
        0,
        -2.8325113091001413e-15,
        31.823328018188477,
        0,
        0,
        84.42018127441406,
        5.329070518200751e-15,
        1
      ],
      "name": "pCube1"
    },
    {
      "mesh": 2,
      "name": "pCube1_SwordMAT_0"
    }
  ],
  "samplers": [
    {
      "magFilter": 9729,
      "minFilter": 9987,
      "wrapS": 10497,
      "wrapT": 10497
    }
  ],
  "scene": 0,
  "scenes": [
    {
      "name": "Sketchfab_Scene",
      "nodes": [
        0
      ]
    }
  ],
  "textures": [
    {
      "sampler": 0,
      "source": 0
    },
    {
      "sampler": 0,
      "source": 1
    },
    {
      "sampler": 0,
      "source": 2
    }
  ]
}